PathFileType	4	(X/Y/Z)	Patient4_TMGait_0pt5_01_left_09.trc.trc
DataRate	CameraRate	NumFrames	NumMarkers	Units	OrigDataRate	OrigDataStartFrame	OrigNumFrames
76.502732240437	76.502732240437	4	33	mm	76.502732240437	18	       141
Frame#	Time	L.ASIS			Sacral			L.Shoulder			Chest			R.Shoulder			Neck			R.ASIS			R.Thigh.Superior			R.Thigh.Lateral			R.Thigh.Inferior			R.Patella			L.Thigh.Superior			L.Thigh.Lateral			L.Thigh.Inferior			L.Patella			L.Shank.Superior			L.Shank.Lateral			L.Shank.Inferior			R.Shank.Superior			R.Shank.Lateral			R.Shank.Inferior			R.Heel			R.Midfoot.Superior			R.Midfoot.Lateral			R.Toe			L.Heel			L.Midfoot.Lateral			L.Midfoot.Superior			L.Toe			L.Elbow			L.Wrist			R.Elbow			R.Wrist			
		X1	Y1	Z1	X2	Y2	Z2	X3	Y3	Z3	X4	Y4	Z4	X5	Y5	Z5	X6	Y6	Z6	X7	Y7	Z7	X8	Y8	Z8	X9	Y9	Z9	X10	Y10	Z10	X11	Y11	Z11	X12	Y12	Z12	X13	Y13	Z13	X14	Y14	Z14	X15	Y15	Z15	X16	Y16	Z16	X17	Y17	Z17	X18	Y18	Z18	X19	Y19	Z19	X20	Y20	Z20	X21	Y21	Z21	X22	Y22	Z22	X23	Y23	Z23	X24	Y24	Z24	X25	Y25	Z25	X26	Y26	Z26	X27	Y27	Z27	X28	Y28	Z28	X29	Y29	Z29	X30	Y30	Z30	X31	Y31	Z31	X32	Y32	Z32	X33	Y33	Z33	

18	12.322214285714	693.668515210774	964.019923714107	349.727079194878	498.098942245728	1005.954721688066	529.705227030956	652.338372102091	1444.569182725608	353.541409902933	771.686540752700	1362.873762159521	497.723792486400	707.233004186495	1425.938488487076	684.746490078745	667.887814907611	1495.455045344644	507.614912914886	734.298914277680	938.241326150721	622.164997220752	738.555016421291	728.049312749554	589.452810107630	641.230723690818	630.848656118601	652.989242486136	699.931969083666	568.956328825464	569.311611160939	684.735282055100	484.776592058989	572.795495198229	766.851650270377	773.898887803523	372.517484678664	711.555336292814	647.995241022633	299.218321497717	814.547571653719	585.711762039149	357.260027295137	841.858303691012	522.946048077881	353.432103903465	828.508012816105	453.101146188316	344.193946420998	768.522867480018	319.532246032743	295.580189131591	862.209788524752	225.911246883746	349.178599959806	651.465561313864	399.197344208182	577.831232153325	575.171756460654	298.044595304814	636.374217386171	611.094667096701	203.249430009212	569.927830093430	468.612896881090	41.962801130144	533.919933861003	639.693519377907	96.203716972881	572.095021627893	551.152729624840	35.694999796120	609.048046523750	759.368041917541	43.290258024071	601.397787078624	787.753867269816	42.999033565700	390.284380169532	861.905891832333	48.791781430780	310.442431929777	929.031196550126	129.704225817807	328.211770550672	1063.914412846987	106.066997765356	304.461176094472	536.324848202811	1115.620039208145	228.954521246797	537.864863413211	855.636236479074	207.038492542056	772.638357737923	1080.647535611972	776.928480237830	1017.227033934069	1046.776119633764	714.395892977057	
19	12.335285714286	694.194694775447	962.842176220428	348.757760056908	499.018120387023	1004.687454292838	529.054719272800	651.041549646582	1443.557470663850	351.872591796459	770.936396019743	1362.375448048827	495.857153374372	706.775307739105	1425.485865172726	682.952036074790	666.774973544763	1494.645127939697	505.872181968213	734.958482996656	937.716220580083	621.285963025859	737.968421889770	727.044699608846	588.690435770926	639.947630554137	630.306833215766	652.458876993406	697.894311348373	568.002305033499	568.731678762022	681.918604234572	483.714089536779	572.048181929377	768.016820480725	772.807530191350	371.447023754661	711.350580459957	646.075670540916	299.793553584506	814.906411413862	584.330621725870	356.980355978693	841.940323515465	521.396743733218	353.729817258697	828.308330057691	451.153751875027	345.023038721732	767.372676840164	317.737888644868	297.411891047947	860.754206825301	223.894013622695	350.956138585522	647.884145398254	398.425158373531	577.309240213385	570.977757375761	297.956066392842	636.201735663903	605.693576549335	202.803534565879	569.647879236484	462.030140932510	41.965087213346	533.978253666768	633.167007211641	96.112538946158	572.063435818789	544.591385755703	35.643108625926	609.061649221896	752.812824757691	43.067793860564	601.382197015130	785.059238861492	42.581601079478	393.241111447667	858.755536984401	47.158350719799	312.938289417420	927.225160384157	126.784167942093	330.251517186941	1061.441590596743	100.906130450796	305.719071677801	533.114884172128	1115.151768808406	228.529107189541	533.482366202266	854.999161035728	207.982744077572	777.077153149120	1081.072281372074	773.671066441333	1021.614469765636	1055.017614491800	708.422503808702	
20	12.348357142857	695.084232124343	961.579715760732	347.695909244547	500.078735103652	1003.344195979701	528.131197853592	649.717600990039	1442.448980423624	350.047781839668	770.193535670859	1361.909981461624	493.871772595881	706.222850553557	1425.015473197495	681.029747008272	665.574026078823	1493.770468329996	503.978845000845	735.831954412047	937.106163317321	620.304155195778	737.606339948548	725.967389858896	587.896904591918	638.791861768592	629.731169799839	651.852506173679	696.036871744001	566.988265705359	568.123057582357	679.227967636577	482.582641962316	571.242148628649	769.527007023199	771.501976252398	370.430028501974	711.464897898758	644.031018552076	300.342675970637	815.408745235731	582.752390410066	356.885377543788	842.020775943376	519.423679941626	354.202213480577	827.877586807802	448.695788224219	345.971909051020	765.417998542015	315.715222900689	299.298445614923	857.986320890693	221.229098393145	352.904430846729	644.420695835069	397.623857392101	576.739457910694	566.858665331139	297.878534901605	635.998230867887	600.334441457936	202.349332093310	569.356431802328	455.452859729333	41.971718071925	534.044773948240	626.655299548203	96.019577867338	572.044618938582	538.036219228949	35.581120721943	609.085020871554	746.263848141863	42.809349069048	601.371617661818	780.137662108977	41.909931332136	396.131807721769	853.401786506202	45.207751189153	315.372552006829	923.594198217155	123.096301967048	332.540497360257	1057.011858898728	94.377959391306	307.111277922711	530.184024992073	1114.438355216912	228.084370146246	529.799774105969	854.115907837017	208.831047950360	781.490423475025	1081.636986244412	770.544732738387	1025.715223932705	1062.914136952375	702.728734576842	
21	12.361428571429	696.298888255021	960.257382525181	346.545710056087	501.244543219457	1001.972989949749	526.932900164402	648.419208532252	1441.253773729888	348.065436484297	769.494496127985	1361.476595026351	491.773518763472	705.610338707610	1424.541598289249	678.982101248253	664.337134148824	1492.848333082322	501.927469704767	736.887584059251	936.404290479102	619.217244263582	737.444556249476	724.821889912372	587.075729008501	637.746063391618	629.128676958768	651.155846913400	694.359421968164	565.925259267882	567.474785447964	676.675634514619	481.389268459175	570.375225342266	771.272562751681	769.982789243620	369.508614632019	711.838493903896	641.925328629377	300.819613508840	815.983852799733	581.013522923608	356.975244302203	842.025239576788	517.109674524473	354.866743247964	827.234149413593	445.864283642513	347.008738845239	762.886774242897	313.532341677014	301.145900880016	854.234732820587	218.101930108278	354.953533725360	641.082582093449	396.797735698822	576.115019257678	562.811737113303	297.822596427895	635.757875623423	595.019248635590	201.896733653335	569.053648592940	448.883615172795	42.003919614658	534.122037541772	620.158602797417	95.927708253945	572.037551640063	531.488738845496	35.516867464411	609.116438709469	739.721923663625	42.515355790113	601.368160976004	773.530738311656	41.061097079144	398.815518340239	846.440803613283	43.104728842414	317.657932038113	918.595993022968	118.905756193962	335.032945069294	1051.138412262343	86.943284626802	308.704046094542	527.601726713433	1113.474092988452	227.597218173748	526.828813942983	852.983396902686	209.554007917321	785.818037574231	1082.317371146311	767.561930700149	1029.528869089406	1070.373183988283	697.360136556556	
